<svg width="941" height="780" viewBox="0 0 941 780" fill="none" xmlns="http://www.w3.org/2000/svg">
<g id="animated-svg-homepage">
<g clip-path="url(#clip0)">
<path id="Vector" d="M550.5 724C741.314 724 896 569.314 896 378.5C896 187.686 741.314 33 550.5 33C359.686 33 205 187.686 205 378.5C205 569.314 359.686 724 550.5 724Z" fill="#B84545" fill-opacity="0.71"/>
<g id="sun-gradient" style="mix-blend-mode:difference">
<path d="M897 378C897 569.643 741.643 725 550 725C358.357 725 203 569.643 203 378C203 186.357 358.357 31 550 31C741.643 31 897 186.357 897 378ZM225.994 378C225.994 556.944 371.056 702.006 550 702.006C728.944 702.006 874.006 556.944 874.006 378C874.006 199.056 728.944 53.9936 550 53.9936C371.056 53.9936 225.994 199.056 225.994 378Z" fill="#EDF12A"/>
<path d="M897 378C897 569.643 741.643 725 550 725C358.357 725 203 569.643 203 378C203 186.357 358.357 31 550 31C741.643 31 897 186.357 897 378ZM225.994 378C225.994 556.944 371.056 702.006 550 702.006C728.944 702.006 874.006 556.944 874.006 378C874.006 199.056 728.944 53.9936 550 53.9936C371.056 53.9936 225.994 199.056 225.994 378Z" fill="url(#paint0_linear)"/>
</g>
<path id="Vector_2" d="M912 732C912 747.464 707.842 780 456 780C204.158 780 0 747.464 0 732C0 716.536 204.158 724 456 724C707.842 724 912 716.536 912 732Z" fill="#893E3E"/>
<path id="Vector_3" opacity="0.1" d="M912 732C912 747.464 707.842 780 456 780C204.158 780 0 747.464 0 732C0 716.536 204.158 724 456 724C707.842 724 912 716.536 912 732Z" fill="#733232"/>
<path id="Vector_4" d="M456 760C707.842 760 912 747.464 912 732C912 716.536 707.842 704 456 704C204.158 704 0 716.536 0 732C0 747.464 204.158 760 456 760Z" fill="#4F783B"/>
<path id="back-left-leaf" d="M722.189 599.413C722.189 662.617 761.84 713.761 810.841 713.761Z" fill="#2E6C29"/>
<path id="back-right-leaf" d="M810.841 713.761C810.841 649.847 855.089 598.128 909.771 598.128Z" fill="#2E6C29"/>
<path id="front-left-leaf" d="M754.309 605.142C754.309 665.18 779.594 713.761 810.841 713.761Z" fill="#4E8F48"/>
<path id="front-right-leaf" d="M810.841 713.761C810.841 632.093 861.984 566.008 925.189 566.008Z" fill="#4E8F48"/>
<path id="Vector_5" d="M792.19 714.567C792.19 714.567 804.763 714.18 808.552 711.482C812.341 708.784 827.891 705.562 828.831 709.889C829.771 714.216 847.725 731.41 833.531 731.525C819.337 731.639 800.55 729.314 796.768 727.01C792.987 724.707 792.19 714.567 792.19 714.567Z" fill="#A8A8A8"/>
<path id="Vector_6" d="M613.621 221.442C612.705 220.673 611.604 220.159 610.426 219.95C608.888 219.81 607.466 220.675 606.017 221.209C602.221 222.607 598.026 221.75 593.992 221.45C589.958 221.15 585.339 221.704 582.906 224.936C582.068 226.297 581.31 227.706 580.636 229.156C578.279 233.189 573.38 235.626 572.13 240.127C571.314 243.068 572.28 246.277 571.493 249.226C570.615 252.513 569.341 256.667 568.921 260.044C568.508 263.353 570.012 275.212 572.698 279.089C576.959 272.334 581.438 265.758 586.123 259.284C586.862 258.067 590.287 252.521 591.518 251.808C595.033 250.148 595.223 247.404 599.076 246.896C600.54 246.703 601.549 245.04 603.024 244.982C607.294 244.813 609.511 250.213 613.422 251.938C615.147 252.699 617.344 252.829 618.408 254.386C618.851 255.137 619.092 255.989 619.109 256.861C619.378 260.089 618.877 263.37 619.438 266.56C619.998 269.75 618.305 286.483 621.498 287.031C622.021 284.598 626.142 280.722 627.782 278.849C630.602 275.627 634.071 265.455 636.228 261.756C638.254 258.282 641.043 249.434 639.543 245.703C638.973 244.562 638.14 243.571 637.113 242.813C629.107 235.878 622.664 227.258 613.621 221.442Z" fill="#0D0404"/>
<path id="Vector_7" opacity="0.2" d="M833.784 730.019C819.59 730.133 800.803 727.808 797.022 725.504C794.142 723.75 792.994 717.455 792.61 714.551C792.344 714.562 792.19 714.567 792.19 714.567C792.19 714.567 792.987 724.707 796.768 727.01C800.55 729.314 819.337 731.639 833.531 731.525C837.628 731.492 839.043 730.034 838.966 727.875C838.396 729.179 836.834 729.994 833.784 730.019Z" fill="black"/>
<path id="Vector_8" d="M553.968 320.994L542.586 342.636L540.766 371.633L544.716 408.078L553.968 464.5C553.968 464.5 561.887 499.81 571.331 488C580.775 476.19 563.02 408.048 563.02 408.048L564.571 358.842C564.571 358.842 578.683 327.678 571.331 326.825C563.979 325.972 553.968 320.994 553.968 320.994Z" fill="#F7D9C3"/>
<path id="Vector_9" d="M572.635 235.316C572.635 235.316 585.428 262.18 580.311 274.972C575.194 287.764 599.499 301.836 599.499 301.836L631.48 283.927V260.901L626.363 250.667C626.363 250.667 605.895 239.154 608.454 221.244C611.012 203.335 572.635 235.316 572.635 235.316Z" fill="#F7D9C3"/>
<path id="Vector_10" opacity="0.1" d="M572.635 235.316C572.635 235.316 585.428 262.18 580.311 274.972C575.194 287.764 599.499 301.836 599.499 301.836L631.48 283.927V260.901L626.363 250.667C626.363 250.667 605.895 239.154 608.454 221.244C611.012 203.335 572.635 235.316 572.635 235.316Z" fill="black"/>
<path id="Vector_11" d="M564.47 287.517L557.457 284.86C557.457 284.86 550.188 288.049 547.304 293.312C538.824 308.789 535.535 340.509 542 345C552.878 352.555 558.634 349.12 571.229 348L564.47 287.517Z" fill="#9A3737"/>
<path id="Vector_12" d="M677 286L684.467 310.913L695 331.5L707.5 368.5L689 457.5C689 457.5 692.266 491.756 679 482.5C665.734 473.244 686 374.5 686 374.5L668.5 332.5C668.5 332.5 654.623 298.315 662 295C669.377 291.685 677 286 677 286Z" fill="#F7D9C3"/>
<path id="Vector_13" d="M616.129 686.885L621.246 711.19L631.48 703.515L626.363 681.768L616.129 685.605V686.885Z" fill="#FFF4F4"/>
<g id="pants">
<path id="Vector_14" d="M570.077 427.201L562.401 432.318C562.401 432.318 558.564 477.091 567.518 511.63C576.473 546.169 582.869 587.105 582.869 587.105C582.869 587.105 598.22 689.443 602.058 692.002C605.895 694.56 630.201 695.839 631.48 690.722C632.759 685.605 622.525 589.663 622.525 589.663C622.525 589.663 614.85 509.071 621.246 498.838C621.246 498.838 641.714 587.105 648.11 596.059C648.11 596.059 657.065 693.281 662.182 695.839C667.298 698.398 691.604 699.677 692.883 694.56C694.162 689.443 685.208 579.429 681.37 570.475C677.532 561.52 676.253 428.48 667.298 429.759C658.344 431.038 570.077 427.201 570.077 427.201Z" fill="#1A1667"/>
<path id="Ellipse 2" d="M673.805 460.535C671.398 462.316 666.852 463.534 663.646 463.5C660.44 463.466 657.12 462.476 654.051 460.638C650.981 458.799 648.28 456.184 646.243 453.077C644.205 449.971 642.911 446.493 642.5 443.024L643.864 443.141C644.243 446.342 645.438 449.551 647.318 452.418C649.198 455.285 651.691 457.699 654.523 459.395C657.356 461.092 660.419 462.006 663.378 462.037C666.337 462.068 671.278 460.168 673.5 458.524L673.805 460.535Z" fill="#E8E8E8"/>
<path id="Ellipse 3" d="M561.764 455.85C564.172 457.631 568.717 458.849 571.924 458.815C575.13 458.781 578.449 457.791 581.519 455.953C584.588 454.114 587.289 451.499 589.326 448.392C591.364 445.286 592.659 441.808 593.069 438.34L591.705 438.456C591.326 441.657 590.132 444.866 588.251 447.733C586.371 450.6 583.879 453.014 581.046 454.71C578.213 456.407 575.15 457.321 572.191 457.352C569.232 457.383 564.291 455.483 562.069 453.84L561.764 455.85Z" fill="#E8E8E8"/>
</g>
<path id="Vector_15" d="M668.578 271.134L681.37 276.251C681.37 276.251 703.338 341 699.5 341C698.844 341 679.873 348.589 676 351C669.683 354.933 666.469 351.86 661.5 351C651.693 349.303 659 335.612 659 333.5C659 329.662 658.344 271.134 668.578 271.134Z" fill="#9A3737"/>
<path id="Vector_16" d="M627.642 699.677C627.642 699.677 611.012 690.722 607.175 692.002C603.337 693.281 599.499 711.19 599.499 711.19C599.499 711.19 570.077 732.937 589.265 738.054C608.454 743.171 616.129 731.658 616.129 731.658C616.129 731.658 635.318 721.424 635.318 718.866C635.318 716.307 632.759 699.677 632.759 699.677H627.642Z" fill="#E3E3E3"/>
<path id="Vector_17" d="M666.019 693.281C666.019 693.281 658.344 735.496 663.461 738.054C668.578 740.612 690.325 744.45 692.883 738.054C695.442 731.658 695.442 716.307 694.162 711.19C692.883 706.073 689.045 693.281 689.045 693.281H666.019Z" fill="#E3E3E3"/>
<g id="head">
<path id="Vector_18" d="M587.405 214.182C586.609 213.965 585.764 213.941 584.955 214.115C583.935 214.418 583.265 215.277 582.486 215.95C580.447 217.712 577.534 218.264 574.876 219.099C572.218 219.934 569.422 221.411 568.757 223.899C568.596 224.9 568.499 225.908 568.467 226.919C568.071 229.854 565.613 232.496 566.053 235.425C566.34 237.338 566.192 235.589 566.5 237.5C566.843 239.631 565.636 234.432 566.295 236.5C566.295 239.754 572.22 244.418 575 246C575.864 241.008 579.056 239.219 579.056 239.219C579.056 239.219 581.947 234.247 582.537 233.524C584.325 231.68 582.794 233.877 585.114 232.617C585.996 232.138 588.574 233.927 589.5 233.524C592.18 232.358 590.882 233.5 593.852 233.524C595.163 233.535 598.407 231.495 599.514 232.134C600.003 232.46 606.25 224.498 606.5 225C607.559 226.809 609.385 226.286 610.62 228C611.855 229.714 609.811 236.98 612 236.5C611.821 235.671 611.389 231.873 614 233.5C614.605 232.564 612.747 227.543 614 227.5C614 228 613 224.5 614 227.5C614.339 224.974 612.603 223.592 610.62 221.799C609.942 221.278 609.138 220.911 608.275 220.727C601.258 218.699 594.776 215.301 587.405 214.182Z" fill="#853B3B"/>
<path id="Vector_19" d="M590 246.5C606.25 246.5 614.85 233.656 614.85 217.407C614.85 201.157 601.677 187.984 585.428 187.984C569.178 187.984 556.005 201.157 556.005 217.407C556.005 233.656 573.75 246.5 590 246.5Z" fill="#F7D9C3"/>
<path id="Vector_20" d="M580.296 170.869C579.15 170.525 577.935 170.488 576.771 170.762C575.303 171.242 574.339 172.598 573.219 173.662C570.285 176.447 566.093 177.319 562.269 178.638C558.445 179.958 554.422 182.293 553.465 186.223C553.233 187.805 553.094 189.399 553.048 190.997C552.478 195.633 548.941 199.809 549.573 204.437C549.986 207.461 552.143 210.027 552.585 213.046C553.079 216.413 553.551 220.732 554.5 224C555.43 227.202 561.5 237.5 565.5 240C566.743 232.111 568.257 224.3 570 216.5C570.198 215.091 571.151 208.642 572 207.5C574.572 204.586 573.662 201.991 577 200C578.268 199.244 578.537 197.318 579.869 196.681C583.725 194.838 587.896 198.922 592.17 198.96C594.056 198.976 596.125 198.227 597.718 199.237C598.422 199.751 598.98 200.439 599.341 201.232C600.864 204.091 601.701 207.303 603.477 210.011C605.254 212.72 611.351 229.259 614.5 228.5C614.229 227.123 614.29 225.626 615 223.5C615.549 221.856 615.666 219.033 616 218C617.317 213.925 616.481 203.21 617 198.96C617.487 194.969 616.551 185.738 613.698 182.905C612.723 182.082 611.566 181.501 610.323 181.211C600.227 178.007 590.901 172.637 580.296 170.869Z" fill="#853B3B"/>
</g>
<g id="chest-piece">
<path id="Vector_21" d="M596.941 282.647L590.545 271.134C590.545 271.134 581.838 258.342 578 260.901C574.162 263.459 575.194 274.972 575.194 274.972C575.194 274.972 545.771 285.206 548.33 299.277C550.888 313.349 567.518 337.654 567.518 337.654C567.518 337.654 570.077 358.122 567.518 363.239C564.96 368.356 559.843 372.194 563.681 377.311C567.518 382.428 568.798 383.707 567.518 390.103C566.239 396.499 563.681 399.058 566.239 401.616C568.798 404.174 564.96 431.038 562.401 432.318C559.843 433.597 644.272 446.389 650.668 442.551C657.065 438.714 674.974 438.714 673.695 434.876C672.415 431.038 667.298 408.012 667.298 404.174C667.298 400.337 667.298 383.707 666.019 382.428C664.74 381.148 667.298 361.96 667.298 361.96L660.902 308.232L681.37 276.251C681.37 276.251 676.253 258.342 651.948 255.784C627.642 253.225 620.919 246.829 620.919 246.829C620.919 246.829 618.688 258.342 613.571 260.901C608.454 263.459 596.941 282.647 596.941 282.647Z" fill="#0D0404"/>
<line id="Line 1" x1="597.5" y1="284" x2="597.5" y2="291" stroke="#FCFCFC"/>
<line id="Line 2" x1="597.5" y1="292" x2="597.5" y2="299" stroke="#FCFCFC"/>
<line id="Line 3" x1="597.5" y1="300" x2="597.5" y2="307" stroke="#FCFCFC"/>
<line id="Line 4" x1="597.5" y1="308" x2="597.5" y2="315" stroke="#FCFCFC"/>
<line id="Line 5" x1="597.5" y1="316" x2="597.5" y2="323" stroke="#FCFCFC"/>
</g>
<g id="speech-bubble3">
<path id="Vector_22" d="M408 525H12V655H27V689L61 655H408V525Z" fill="#A5A4A2"/>
<path id="Vector_23" opacity="0.3" d="M235 542H58V554H235V542Z" fill="#DE2929"/>
<path id="Vector_24" opacity="0.3" d="M210 564.5H58V576.5H210V564.5Z" fill="#DE2929"/>
<path id="Vector_25" opacity="0.3" d="M75 628.5C84.3888 628.5 92 620.889 92 611.5C92 602.112 84.3888 594.5 75 594.5C65.6112 594.5 58 602.112 58 611.5C58 620.889 65.6112 628.5 75 628.5Z" fill="#DE2929"/>
</g>
<g id="speech-bubble2">
<path id="Vector_26" d="M58 345H454V475H439V509L405 475H58V345Z" fill="#807171"/>
<path id="Vector_27" d="M408 365H94V377H408V365Z" fill="#E65757" fill-opacity="0.82"/>
<path id="Vector_28" d="M408 388H94V400H408V388Z" fill="#E65757" fill-opacity="0.82"/>
<path id="Vector_29" d="M408 411H94V423H408V411Z" fill="#E65757" fill-opacity="0.82"/>
<path id="Vector_30" d="M293 434H94V446H293V434Z" fill="#E65757" fill-opacity="0.82"/>
</g>
<g id="speech-bubble1">
<path id="Vector_31" d="M408 158H12V288H27V322L61 288H408V158Z" fill="#A5A4A2"/>
<path id="Vector_32" opacity="0.3" d="M362 179.5H58V191.5H362V179.5Z" fill="#DE2929"/>
<path id="Vector_33" opacity="0.3" d="M362 203H58V215H362V203Z" fill="#DE2929"/>
<path id="Vector_34" opacity="0.3" d="M267 226H58V238H267V226Z" fill="#DE2929"/>
</g>
</g>
</g>
<defs>
<linearGradient id="paint0_linear" x1="550" y1="31" x2="550" y2="725" gradientUnits="userSpaceOnUse">
<stop offset="0.386458" stop-color="#E3DADA"/>
<stop offset="1" stop-color="white" stop-opacity="0"/>
</linearGradient>
<clipPath id="clip0">
<rect width="941" height="780" fill="white"/>
</clipPath>
</defs>
</svg>
