<svg width="636" height="462" viewBox="0 0 636 462" fill="none" xmlns="http://www.w3.org/2000/svg">
<g id="about-main">
<g id="man">
<path id="Vector" d="M8.4482 295.942H0V367.388C0 367.388 54.5293 385.058 107.523 367.388V295.942H8.4482Z" fill="#927777"/>
<path id="Vector_2" d="M52.9932 304.393C82.2606 304.393 105.986 300.781 105.986 296.326C105.986 291.871 82.2606 288.26 52.9932 288.26C23.7259 288.26 0 291.871 0 296.326C0 300.781 23.7259 304.393 52.9932 304.393Z" fill="#E6E6E6"/>
<path id="Vector_3" opacity="0.1" d="M52.9932 304.393C82.2606 304.393 105.986 300.781 105.986 296.326C105.986 291.871 82.2606 288.26 52.9932 288.26C23.7259 288.26 0 291.871 0 296.326C0 300.781 23.7259 304.393 52.9932 304.393Z" fill="black"/>
<path id="Vector_4" d="M71.6397 122.323C71.6397 122.323 104.162 123.207 109.534 125.162C114.905 127.117 117.307 141.095 117.307 141.095L92.0553 149.034L73.1682 147.964L58.9538 148.969L66.8907 128.176L71.6397 122.323Z" fill="#2F2E41"/>
<path id="Vector_5" d="M73.0426 111.648C73.0426 111.648 75.1824 119.915 70.4333 125.768C65.6843 131.622 90.8489 152.48 90.8489 152.48L104.124 150.197C104.124 150.197 101.198 124.796 105.129 118.364C109.059 111.932 73.0426 111.648 73.0426 111.648Z" fill="#F7D9C3"/>
<path id="Vector_6" d="M179.389 358.913L151.996 403.744L132.188 392.176L161.37 353.466L179.389 358.913Z" fill="white" stroke="black" stroke-width="0.2"/>
<path id="Vector_7" d="M141.5 389.5C141.5 389.5 135.02 380.204 135.5 383C135.98 385.796 122.805 409.624 130.392 411.918C137.98 414.211 204.105 417.85 205 410.5C205.895 403.151 184.531 400.451 184.531 400.451C184.531 400.451 172.468 388.853 169.793 390.033C167.783 390.919 152.814 393.426 145.5 393C143.082 392.859 141.5 389.5 141.5 389.5Z" fill="#2F2E41"/>
<path id="Vector_8" d="M195.674 420.066L178.192 430.193L154.919 390.533L172.183 387.565L195.674 420.066Z" fill="white" stroke="black" stroke-width="0.2"/>
<path id="Vector_9" d="M191.693 295.603L184.749 305.432C184.749 305.432 130.383 372.683 133.899 376.396C137.414 380.109 152.054 394.141 159.5 391.422C166.946 388.703 214.663 320.436 214.663 320.436L207.763 292.84L191.693 295.603Z" fill="#322772"/>
<path id="Vector_10" d="M49.1013 286.299C49.1013 286.299 56.5142 300.136 75.303 304.82C94.0918 309.505 113.721 319.082 114.42 318.962C115.119 318.842 117.095 317.783 117.575 320.579C118.055 323.374 123.208 328.245 123.208 328.245C123.208 328.245 165.074 422.924 173 423C180.926 423.076 193.162 415.717 193.5 413.5C193.838 411.283 152.172 316.789 151.932 315.391L149.05 298.617C149.05 298.617 181.594 303.815 184.629 304.733C187.664 305.65 214.663 320.436 214.663 320.436C214.663 320.436 242.186 300.594 216.442 280.555C190.699 260.516 146.451 245.817 146.451 245.817L130.577 241.35L116.743 240.524L114.706 232.711L81.9406 234.602L47.7475 249.115L49.1013 286.299Z" fill="#322772"/>
<path id="Vector_11" d="M84.0971 99.1442C83.4648 98.9722 82.7936 98.9537 82.151 99.0907C81.3407 99.3307 80.8085 100.01 80.1897 100.542C78.5701 101.936 76.2561 102.372 74.145 103.032C72.0338 103.693 69.8127 104.862 69.2841 106.829C69.1565 107.62 69.0796 108.418 69.0539 109.218C68.7392 111.538 69.8897 111.025 70.2388 113.342C70.4668 114.855 71.4945 114.433 71.7388 115.945C72.0112 117.63 71.116 113.898 71.6398 115.534C71.6398 118.108 70.5305 122.195 72.7388 123.447C73.4251 119.498 77.4651 118.945 77.4651 118.945C77.4651 118.945 79.7616 115.013 80.2302 114.441C81.6505 112.983 80.4344 114.72 82.2773 113.724C82.9779 113.345 85.0257 114.76 85.7613 114.441C87.8901 113.519 86.8591 114.422 89.2183 114.441C90.2597 114.45 92.8365 112.837 93.7159 113.342C94.1043 113.599 99.0666 107.303 99.2652 107.7C100.106 109.13 101.557 108.717 102.538 110.072C103.519 111.428 108.547 123.826 110.286 123.447C110.144 122.791 110.069 120.899 112.143 122.186C112.624 121.445 112.895 116.632 113.89 116.598C113.096 114.226 113.89 116.994 113.89 116.598C114.16 114.601 104.113 106.586 102.538 105.168C101.999 104.756 101.361 104.465 100.675 104.32C95.1012 102.716 89.9522 100.029 84.0971 99.1442Z" fill="#853B3B"/>
<path id="Vector_12" d="M92.3444 128.103C106.44 128.103 117.867 116.673 117.867 102.573C117.867 88.4732 106.44 77.0431 92.3444 77.0431C78.2488 77.0431 66.822 88.4732 66.822 102.573C66.822 116.673 78.2488 128.103 92.3444 128.103Z" fill="#F7D9C3"/>
<path id="Vector_13" d="M69.2543 123.093L72.3239 122.565C72.3239 122.565 77.8681 143.918 95.0193 147.445C95.0193 147.445 103.482 137.304 103.121 135.593C102.76 133.882 109.823 124.752 113.579 129.863C117.334 134.974 112.662 225.002 115.817 226.619C118.972 228.235 125.741 229.949 120.293 235.923C114.845 241.896 93.2073 249.934 88.4146 247.16C83.6218 244.386 73.8289 220.886 69.5929 212.979C65.357 205.073 58.5773 178.176 58.5773 178.176C58.5773 178.176 49.9197 148.723 55.2474 142.051C60.575 135.378 69.2543 123.093 69.2543 123.093Z" fill="#EEEDF4"/>
<path id="Vector_14" d="M93.6806 233.927C93.1101 240.198 92.1335 246.426 90.7571 252.571C89.5054 257.57 88.048 260.589 86.3848 260.46C82.141 260.143 80.212 266.369 79.2175 273.547C78.1544 281.162 78.1544 289.849 77.5714 292.919C76.7998 296.976 71.8616 300.072 61.9937 299.163C56.1169 298.494 50.3492 297.079 44.83 294.952C31.5071 290.107 31.9015 250.813 34.1305 221.655C35.4937 203.783 37.5427 189.71 37.5427 189.71C37.5427 189.71 33.4961 177.636 32.2016 169.36C31.9438 167.85 31.8147 166.321 31.8158 164.789C32.0129 157.56 45.0201 148.317 52.9933 136.148C60.975 123.979 72.0502 122.614 72.0502 122.614L68.2608 134.054C68.2608 134.054 74.1335 143.118 74.1764 151.745C74.2193 160.373 88.2365 166.599 93.2691 170.775C96.4326 173.399 96.3555 208.431 93.6806 233.927Z" fill="#AC3E3E"/>
<path id="Vector_15" d="M104.763 126.702C104.763 126.702 105.683 127.789 109.894 127.259C114.945 126.622 121.889 128.37 123.503 133.194C126.461 142.039 134.802 178.022 134.802 178.022C134.802 178.022 138.274 219.16 139.835 228.246C141.396 237.332 140.621 245.38 142.161 250.152C143.7 254.924 126.964 241.252 120.795 243.032C114.627 244.812 110.664 221.748 111.439 213.7C112.214 205.651 112.869 196.904 110.729 188.637C108.59 180.37 112.383 158.491 112.241 153.479C112.099 148.466 98.6403 135.833 104.763 126.702Z" fill="#AC3E3E"/>
<path id="Vector_16" d="M122.822 254.556C122.822 254.556 149.845 269.303 152.431 290.293C155.018 311.283 116.287 269.97 116.287 269.97L122.822 254.556Z" fill="#F7D9C3"/>
<path id="Vector_17" d="M147.374 240.55C147.374 240.55 178.038 270.068 187.353 260.874C196.668 251.679 157.465 230.589 157.465 230.589L147.374 240.55Z" fill="#F7D9C3"/>
<path id="Vector_18" d="M182.424 421.68C182.424 421.68 175.819 429.292 174.182 428.134C172.544 426.977 168.778 442.735 172.173 445.749C175.568 448.763 188.647 453.71 188.789 458.723C188.931 463.735 224.009 462.741 225.264 457.488C226.52 452.236 220.864 440.256 216.89 438.061C212.917 435.866 198.223 415.663 198.223 415.663C198.223 415.663 186.715 417.345 182.424 421.68Z" fill="#2F2E41"/>
<path id="Vector_19" opacity="0.1" d="M118.517 280.09C112.25 275.665 94.7523 274.567 79.2174 273.547C72.4017 273.11 65.9632 272.681 61.0163 271.986C56.2496 271.326 51.963 266.969 48.1564 260.477C42.3866 250.641 37.7227 235.891 34.1305 221.655C35.4936 203.783 37.5427 189.71 37.5427 189.71C37.5427 189.71 33.4961 177.636 32.2015 169.36C33.1141 168.09 34.2896 167.031 35.648 166.256C52.1258 159.181 67.8578 228.807 69.8554 239.733C69.8897 239.913 69.9154 240.084 69.9412 240.23C70.9099 245.856 81.3779 250.667 90.7571 252.571C96.5355 253.745 101.911 253.823 104.389 252.296C110.896 248.3 130.906 264.294 132.423 264.748C133.941 265.211 127.519 286.462 118.517 280.09Z" fill="black"/>
<path id="Vector_20" d="M35.6508 161.97C35.6508 161.97 23.6745 167.626 28.9367 194.065C34.1989 220.503 44.7998 265.452 61.0121 267.702C77.2243 269.951 109.507 269.438 118.514 275.805C127.521 282.171 133.94 260.92 132.422 260.461C130.905 260.003 110.893 244.015 104.387 248.012C97.88 252.009 71.5036 245.031 69.9424 235.945C68.3812 226.859 52.398 154.773 35.6508 161.97Z" fill="#AC3E3E"/>
<path id="Vector_21" d="M116.166 170L120 164.5C120 164.5 118.134 176.252 122.126 179.287C126.117 182.322 128.996 168.97 133 170C137.004 171.03 163.697 232.017 165.191 233.532C166.685 235.046 159.79 252.306 153.355 249.689C146.92 247.073 116.166 170 116.166 170Z" fill="#AC3E3E"/>
<path id="Vector_22" d="M77.8238 102.218C78.8019 101.956 78.9456 100.657 78.9784 99.6451C79.154 94.2249 82.3131 94.078 87.5 92.5C89.4903 91.954 91.9618 91.0937 94 91.4179C96.9094 91.8055 98.9407 91.0627 101.5 92.5C102.851 93.2597 104.67 91.1859 106.203 91.4179C107.215 91.5711 112.345 94.5 112.345 97C114.56 97.3943 113.874 109.52 116 108.782C118.034 108.076 121.489 91.324 121.538 89.171C121.65 84.2661 115.623 79.7823 112.345 76.1335C109.857 73.3645 106.11 72.0863 102.448 71.4216C98.1701 70.7341 93.8347 70.4702 89.5049 70.634C83.6441 70.7386 82.9969 68.8864 77.712 71.423C72.4272 73.9596 67.988 79.0082 67.7347 84.8662C67.6819 86.0865 67.8078 87.3119 67.7052 88.5289C67.455 91.4981 65.1108 93.4116 64.3714 96.298C63.8428 98.4159 63.7638 100.621 64.1395 102.771C64.5151 104.922 65.3371 106.969 66.5524 108.782C68.5138 111.669 69.1386 115.368 71.5 118.5C72.9176 117.031 72.0142 115.6 73.4318 114.131C74.067 113.645 74.5167 112.957 74.7057 112.18C74.8947 111.404 74.8117 110.585 74.4705 109.863L72.9652 103.989C72.5782 102.941 72.5326 101.797 72.8348 100.721C74.4485 96.7319 76.1929 102.653 77.8238 102.218Z" fill="#853B3B"/>
</g>
<g id="can-ban">
<rect id="Rectangle 1" x="285.5" y="0.5" width="350" height="192" stroke="black"/>
<path id="Vector_23" d="M386.222 193C383.968 175.552 385.989 157.747 387.943 140.529C388.987 131.328 390.067 121.813 390.482 112.462C391.358 92.7479 389.322 72.7361 387.353 53.3832C385.575 35.9151 383.737 17.8521 384.031 0L385.34 0.0256321C385.047 17.787 386.88 35.8039 388.653 53.2278C390.628 72.6354 392.67 92.704 391.789 112.53C391.371 121.934 390.288 131.475 389.241 140.703C387.298 157.83 385.287 175.54 387.517 192.803L386.222 193Z" fill="#3F3D56"/>
<path id="Vector_24" d="M503.948 192.788C498.937 129.151 496.745 64.5193 497.435 0.689926L498.728 0.703829C498.039 64.495 500.229 129.087 505.237 192.687L503.948 192.788Z" fill="#3F3D56"/>
<path id="Vector_25" d="M309.449 30.6699L309.312 29.383C325.043 27.7205 340.867 27.1166 356.679 27.5752L356.641 28.8684C340.888 28.4111 325.122 29.013 309.449 30.6699Z" fill="#3F3D56"/>
<path id="Vector_26" d="M420.48 25.069L420.444 23.7758C428.184 23.5576 436.187 23.3317 443.967 22.2331C452.694 21.0005 461.353 18.6416 469.727 16.3603L470.067 17.6087C461.654 19.9004 452.955 22.2704 444.147 23.5143C436.296 24.623 428.256 24.8498 420.48 25.069Z" fill="#3F3D56"/>
<path id="Vector_27" d="M608.158 16.1041C607.201 16.1041 606.248 16.0962 605.301 16.0883L531.551 15.4774L531.561 14.1836L605.311 14.7945C610.385 14.8368 615.627 14.8798 620.62 13.6855L620.921 14.9439C616.727 15.8295 612.443 16.2189 608.158 16.1041Z" fill="#3F3D56"/>
<path id="brown-paper" d="M331.504 94.8047H302.401C305.675 81.3703 308.819 68.8278 302.401 59.8712H331.504C336.982 71.5279 336.982 83.1724 331.504 94.8047Z" fill="#9C926F"/>
<path id="orange-paper" d="M467.063 159.681H437.96C436.14 143.487 440.156 131.417 437.96 124.748H467.063C465.945 136.365 465.945 148.064 467.063 159.681Z" fill="#C19C1A"/>
<path id="Vector_28" d="M433.041 110.331H403.938C405.029 96.8985 408.548 84.3556 403.938 75.3972H433.041C438.52 87.0417 438.52 98.6862 433.041 110.331Z" fill="#E8BB1D"/>
<path id="pink-paper" d="M533.11 65.9335H562.212C564.033 52.4989 560.017 39.9564 562.212 31H533.11C527.63 42.6445 527.63 54.289 533.11 65.9335Z" fill="#FF6584"/>
<path id="Vector_29" d="M330.857 154.321H359.96C361.78 140.886 357.765 128.344 359.96 119.388H330.857C325.378 131.032 325.378 142.677 330.857 154.321Z" fill="#3F3D56"/>
<g id="svg-github">
<g id="Group">
<path id="github back" d="M486 36H447V75H486V36Z" fill="#262626"/>
<g id="github github">
<path id="Vector_30" fill-rule="evenodd" clip-rule="evenodd" d="M466.5 44.8496C460.47 44.8496 455.58 49.7384 455.58 55.7696C455.58 60.5943 458.709 64.6876 463.048 66.1316C463.594 66.2325 463.794 65.8945 463.794 65.6061C463.794 65.3458 463.784 64.4856 463.779 63.573C460.741 64.2336 460.1 62.2846 460.1 62.2846C459.603 61.0224 458.888 60.6868 458.888 60.6868C457.897 60.009 458.963 60.023 458.963 60.023C460.059 60.1001 460.636 61.1486 460.636 61.1486C461.61 62.8179 463.191 62.3352 463.814 62.0561C463.912 61.3504 464.195 60.8686 464.507 60.5958C462.082 60.3199 459.532 59.3836 459.532 55.1992C459.532 54.0071 459.959 53.0329 460.657 52.2682C460.544 51.9929 460.17 50.8824 460.763 49.3781C460.763 49.3781 461.68 49.0849 463.767 50.4976C464.638 50.2557 465.572 50.1343 466.5 50.1302C467.428 50.1343 468.363 50.2557 469.236 50.4976C471.32 49.0849 472.236 49.3781 472.236 49.3781C472.83 50.8824 472.456 51.9929 472.343 52.2682C473.043 53.0329 473.467 54.0071 473.467 55.1992C473.467 59.3937 470.912 60.3167 468.48 60.5874C468.872 60.926 469.221 61.5908 469.221 62.6096C469.221 64.0705 469.209 65.2464 469.209 65.6061C469.209 65.8968 469.405 66.2372 469.959 66.1301C474.295 64.6846 477.42 60.5928 477.42 55.7696C477.42 49.7384 472.531 44.8496 466.5 44.8496Z" fill="white"/>
<path id="Vector_31" d="M459.716 60.5282C459.692 60.5827 459.607 60.5988 459.529 60.5619C459.45 60.5262 459.405 60.4521 459.431 60.3976C459.454 60.3417 459.54 60.3262 459.619 60.3637C459.698 60.3994 459.744 60.4738 459.716 60.5282Z" fill="white"/>
<path id="Vector_32" d="M460.158 61.0218C460.106 61.0701 460.005 61.0474 459.936 60.9713C459.864 60.8951 459.851 60.7933 459.903 60.7442C459.957 60.696 460.056 60.7186 460.127 60.7948C460.199 60.8719 460.213 60.9728 460.158 61.0218Z" fill="white"/>
<path id="Vector_33" d="M460.589 61.6506C460.522 61.6973 460.413 61.6536 460.345 61.5563C460.278 61.4593 460.278 61.3426 460.346 61.2962C460.414 61.2495 460.522 61.2914 460.591 61.3878C460.657 61.4866 460.657 61.603 460.589 61.6506Z" fill="white"/>
<path id="Vector_34" d="M461.179 62.2582C461.119 62.3242 460.992 62.3064 460.898 62.2162C460.803 62.1284 460.776 62.0032 460.836 61.9371C460.897 61.8711 461.025 61.8898 461.119 61.9794C461.214 62.0671 461.243 62.193 461.179 62.2582Z" fill="white"/>
<path id="Vector_35" d="M461.992 62.6111C461.966 62.6964 461.843 62.7351 461.72 62.6988C461.596 62.6613 461.516 62.5614 461.54 62.4751C461.566 62.3888 461.689 62.3483 461.814 62.3873C461.937 62.4245 462.018 62.5239 461.992 62.6111Z" fill="white"/>
<path id="Vector_36" d="M462.886 62.6762C462.889 62.7664 462.785 62.8411 462.655 62.8428C462.524 62.8458 462.418 62.7726 462.417 62.6839C462.417 62.5932 462.519 62.5194 462.65 62.517C462.78 62.5146 462.886 62.587 462.886 62.6762Z" fill="white"/>
<path id="Vector_37" d="M463.718 62.5349C463.733 62.6227 463.643 62.7131 463.514 62.7369C463.387 62.7601 463.27 62.706 463.254 62.6188C463.238 62.5286 463.33 62.4385 463.457 62.415C463.586 62.3929 463.702 62.4456 463.718 62.5349Z" fill="white"/>
</g>
</g>
</g>
<g id="svg-linkedin">
<g id="Group_2">
<path id="linkedin back" d="M621 80H582V119H621V80Z" fill="#262626"/>
<g id="linkedin linkedin">
<path id="Vector_38" d="M590.859 95.7667H595.389V110.328H590.859V95.7667ZM593.125 88.5281C594.573 88.5281 595.748 89.7039 595.748 91.1525C595.748 92.6014 594.573 93.7771 593.125 93.7771C591.672 93.7771 590.5 92.6014 590.5 91.1525C590.5 89.7039 591.672 88.5281 593.125 88.5281Z" fill="white"/>
<path id="Vector_39" d="M598.228 95.7667H602.566V97.7574H602.629C603.232 96.6126 604.709 95.4053 606.911 95.4053C611.493 95.4053 612.34 98.4205 612.34 102.342V110.328H607.814V103.247C607.814 101.558 607.785 99.386 605.463 99.386C603.108 99.386 602.748 101.226 602.748 103.126V110.328H598.228V95.7667Z" fill="white"/>
</g>
</g>
</g>
</g>
</g>
</svg>
