<svg id="Layer_1" data-name="Layer 1" xmlns="http://www.w3.org/2000/svg" xmlns:xlink="http://www.w3.org/1999/xlink" viewBox="0 0 749.2 690.05"><defs><style>.cls-1{fill:url(#linear-gradient);}.cls-2{fill:url(#linear-gradient-2);}.cls-3,.cls-4{fill:#c1272d;}.cls-4{stroke:#000;stroke-miterlimit:10;}</style><linearGradient id="linear-gradient" x1="510.9" y1="415.39" x2="687.88" y2="415.39" gradientUnits="userSpaceOnUse"><stop offset="0.08" stop-color="#c1272d"/><stop offset="0.74"/></linearGradient><linearGradient id="linear-gradient-2" x1="186.92" y1="261.89" x2="558.87" y2="261.89" gradientUnits="userSpaceOnUse"><stop offset="0.04" stop-color="#c1272d"/><stop offset="0.33"/></linearGradient></defs><title>Logo</title><g id="The_Body" data-name="The Body"><path class="cls-1" d="M612.68,498.89c-20.35,0-41.28-6.85-58.95-19.29-22.27-15.68-37.46-38.77-41.67-63.34-3.38-19.76.71-39,11.54-54.24,13.61-19.15,36.39-30.13,62.51-30.13,20.35,0,41.28,6.85,58.95,19.29,22.27,15.69,37.46,38.78,41.67,63.34,3.38,19.76-.72,39-11.54,54.25C661.58,487.91,638.8,498.89,612.68,498.89Z" transform="translate(-186.39 -30.8)"/><path d="M586.11,331.39v1c20.25,0,41.08,6.82,58.66,19.2,22.17,15.61,37.28,38.58,41.47,63,3.36,19.63-.71,38.76-11.45,53.87-13.52,19-36.16,29.91-62.11,29.91-20.25,0-41.08-6.82-58.66-19.2-22.17-15.61-37.28-38.58-41.47-63-3.36-19.63.71-38.76,11.45-53.87,13.52-19,36.16-29.92,62.11-29.92v-1m0,0c-25.25,0-48.69,10.34-62.91,30.34-25.38,35.69-11.83,88.64,30.25,118.28,18.51,13,39.43,19.38,59.24,19.38,25.26,0,48.7-10.33,62.92-30.33,25.38-35.69,11.83-88.65-30.26-118.29-18.5-13-39.42-19.38-59.24-19.38Z" transform="translate(-186.39 -30.8)"/><path d="M711.6,469.91c-5.46-17.07-25.93-24.37-30.4-24.87l4.56-8.07L715,460.89c.56.46.66,1.9-.09,3.24Z" transform="translate(-186.39 -30.8)"/><path d="M685.9,437.73l28.75,23.54c.34.28.43,1.47-.22,2.61l-2.72,4.81c-5.78-16-24-23-29.72-24l3.91-6.92m-.29-1.53-5.32,9.42c.06-.07.22-.11.48-.11,3.59,0,25.69,7.41,30.69,25.67l3.84-6.81c.82-1.45.82-3.19,0-3.87l-29.67-24.3Zm-5.32,9.42v0Z" transform="translate(-186.39 -30.8)"/><path d="M704.21,484.46a.65.65,0,0,1-.2,0l-37-8.33,3.61-8.53c2.78,2.76,15.76,10.18,28.86,10.18h0a29.87,29.87,0,0,0,9.61-1.5l-2.59,6.12A3.14,3.14,0,0,1,704.21,484.46Z" transform="translate(-186.39 -30.8)"/><path d="M670.84,468.41c3.76,3.13,16.18,9.85,28.67,9.85a30.85,30.85,0,0,0,8.73-1.2l-2.17,5.13a2.7,2.7,0,0,1-1.86,1.77h-.09l-36.39-8.2,3.11-7.34m-.28-1.91h0Zm0,0-4.22,10,37.56,8.46a1.55,1.55,0,0,0,.31,0,3.58,3.58,0,0,0,2.78-2.38l3-7.18a29,29,0,0,1-10.52,1.86c-14.94,0-29.36-9.64-29-10.75Z" transform="translate(-186.39 -30.8)"/><path class="cls-2" d="M400.74,436.89c-42.76,0-86.74-14.35-123.85-40.4-46.83-32.88-78.74-81.27-87.56-132.77-7.08-41.4,1.54-81.77,24.28-113.66,28.63-40.14,76.54-63.17,131.44-63.17,42.76,0,86.74,14.35,123.85,40.4,46.83,32.88,78.74,81.28,87.56,132.78,7.08,41.4-1.54,81.76-24.28,113.65C503.55,413.87,455.64,436.89,400.74,436.89Z" transform="translate(-186.39 -30.8)"/><path d="M345.06,86.39v1a205.88,205.88,0,0,1,62.79,10,225.6,225.6,0,0,1,60.76,30.32c46.72,32.81,78.56,81.08,87.35,132.45a159.22,159.22,0,0,1-.68,59.21,141.78,141.78,0,0,1-23.51,54.07c-28.54,40-76.29,63-131,63a205.88,205.88,0,0,1-62.79-10,225.08,225.08,0,0,1-60.77-30.32c-46.72-32.8-78.56-81.08-87.35-132.45a159.22,159.22,0,0,1,.68-59.21A141.91,141.91,0,0,1,214,150.35c28.53-40,76.29-62.95,131-63v-1m0,0c-52.93,0-102,21.59-131.84,63.38C160,224.33,188.41,335,276.61,396.9c38.76,27.22,82.62,40.49,124.13,40.49,52.93,0,102-21.59,131.84-63.38,53.18-74.56,24.8-185.2-63.4-247.13-38.76-27.22-82.62-40.49-124.13-40.49Z" transform="translate(-186.39 -30.8)"/></g><g id="The_Logo_Symbol" data-name="The Logo Symbol"><path class="cls-3" d="M364.76,408.18a11.5,11.5,0,0,1-11.54-11.44l-8.47-258.31a14.47,14.47,0,0,1,12.35-14.61l3.69-.46a13.76,13.76,0,0,1,1.56-.1,11.51,11.51,0,0,1,11.55,11.45L382.37,393A14.47,14.47,0,0,1,370,407.62l-3.69.46A11.82,11.82,0,0,1,364.76,408.18Z" transform="translate(-186.39 -30.8)"/><path class="cls-3" d="M362.35,123.76a11,11,0,0,1,11,11L381.87,393A14,14,0,0,1,370,407.13l-3.69.46a12.71,12.71,0,0,1-1.5.09,11,11,0,0,1-11-11l-8.47-258.3a14,14,0,0,1,11.91-14.1l3.69-.46a10.9,10.9,0,0,1,1.5-.1m0-1a15.32,15.32,0,0,0-1.63.1l-3.68.46a15,15,0,0,0-12.79,15.13l8.47,258.3a12,12,0,0,0,12,11.93,12.81,12.81,0,0,0,1.62-.1l3.69-.46A15,15,0,0,0,382.87,393l-8.47-258.3a12,12,0,0,0-12-11.93Z" transform="translate(-186.39 -30.8)"/><path class="cls-3" d="M360.88,415.63A17.67,17.67,0,0,1,350.16,412l-4.75-3.59,159.29-211,4.75,3.58A17.83,17.83,0,0,1,512.94,226L375.11,408.55A17.69,17.69,0,0,1,360.88,415.63Z" transform="translate(-186.39 -30.8)"/><path class="cls-3" d="M504.8,198.12l4.35,3.28a17.33,17.33,0,0,1,3.39,24.25L374.71,408.25a17.32,17.32,0,0,1-24.25,3.39l-4.35-3.29L504.8,198.12m-.19-1.4L344.71,408.55l5.15,3.89a18.32,18.32,0,0,0,25.65-3.59l137.83-182.6a18.31,18.31,0,0,0-3.59-25.65l-5.14-3.88Z" transform="translate(-186.39 -30.8)"/><path class="cls-3" d="M247.17,299.76a9.56,9.56,0,0,1-9.57-8.29l-.48-3.11a12.17,12.17,0,0,1,9-13.34l249.09-62.24a11,11,0,0,1,2.6-.32,9.56,9.56,0,0,1,9.57,8.29l.48,3.11a12.17,12.17,0,0,1-9,13.34L249.77,299.44A11.08,11.08,0,0,1,247.17,299.76Z" transform="translate(-186.39 -30.8)"/><path class="cls-3" d="M497.77,213h0a9.06,9.06,0,0,1,9.07,7.87l.48,3.1a11.65,11.65,0,0,1-8.58,12.78L249.65,299a10.09,10.09,0,0,1-2.48.31,9.07,9.07,0,0,1-9.08-7.87l-.48-3.1a11.65,11.65,0,0,1,8.59-12.78l249.09-62.24a10,10,0,0,1,2.48-.31m0-1a11.2,11.2,0,0,0-2.72.34L246,274.54a12.66,12.66,0,0,0-9.34,13.9l.48,3.11a10.08,10.08,0,0,0,10.07,8.71,11.26,11.26,0,0,0,2.72-.34L499,237.68a12.65,12.65,0,0,0,9.33-13.9l-.48-3.1A10.08,10.08,0,0,0,497.77,212Z" transform="translate(-186.39 -30.8)"/><path class="cls-3" d="M245.61,299A10.59,10.59,0,0,1,235,288.46l-4-121.54a13.34,13.34,0,0,1,11.38-13.45l3.4-.43a11.72,11.72,0,0,1,1.44-.09,10.58,10.58,0,0,1,10.62,10.53l4,121.54a13.32,13.32,0,0,1-11.37,13.45l-3.41.43a11.6,11.6,0,0,1-1.44.09Z" transform="translate(-186.39 -30.8)"/><path class="cls-3" d="M247.22,153.45a10.09,10.09,0,0,1,10.12,10.05l4,121.53A12.81,12.81,0,0,1,250.4,298l-3.41.43a10.66,10.66,0,0,1-1.38.09,10.1,10.1,0,0,1-10.12-10.05l-4-121.54A12.84,12.84,0,0,1,242.44,154l3.4-.42a10.78,10.78,0,0,1,1.38-.09m0-1a11,11,0,0,0-1.5.1l-3.41.42a13.83,13.83,0,0,0-11.81,14l4,121.53a11.14,11.14,0,0,0,12.63,10.92l3.4-.42a13.83,13.83,0,0,0,11.81-14l-4-121.53a11.08,11.08,0,0,0-11.12-11Z" transform="translate(-186.39 -30.8)"/><path class="cls-3" d="M242.07,179.72a10.49,10.49,0,0,1-10.49-9.09l-.52-3.39a13.34,13.34,0,0,1,9.82-14.63l118-29.47a11.66,11.66,0,0,1,2.85-.36,10.49,10.49,0,0,1,10.5,9.1l.52,3.39a13.32,13.32,0,0,1-9.82,14.62l-118,29.48A12.16,12.16,0,0,1,242.07,179.72Z" transform="translate(-186.39 -30.8)"/><path class="cls-3" d="M361.7,123.28h0a10,10,0,0,1,10,8.67l.53,3.39a12.82,12.82,0,0,1-9.45,14.06l-118,29.48a11.17,11.17,0,0,1-2.74.34,10,10,0,0,1-10-8.67l-.53-3.39A12.82,12.82,0,0,1,241,153.1l118-29.48a11.16,11.16,0,0,1,2.73-.34m0-1a12.32,12.32,0,0,0-3,.37l-118,29.48a13.83,13.83,0,0,0-10.2,15.18l.53,3.39a11,11,0,0,0,11,9.52,12.4,12.4,0,0,0,3-.37l118-29.48a13.82,13.82,0,0,0,10.2-15.18l-.53-3.39a11,11,0,0,0-11-9.52Z" transform="translate(-186.39 -30.8)"/></g><path d="M625.39,497.39c26,38.23,44.53,76.62,64.56,124.81l-8.14.86c-7.88.84-17.59-4.85-21.68-12.7-24.2-33.94-41.72-69-58.74-112Z" transform="translate(-186.39 -30.8)"/><path class="cls-4" d="M821.78,712.19l-155.37-117-4.22,5.37c-4.08,5.2-1,14.23,6.89,20.17l116.79,88Z" transform="translate(-186.39 -30.8)"/><g id="The_legs" data-name="The legs"><path d="M562.39,484.39c9.35,39.7,10.22,70.51,5.25,119.76l-7.18-1.49c-7-1.45-12.81-9.18-13.08-17.27-11.54-39.9-13.55-74.8-5-115Z" transform="translate(-186.39 -30.8)"/><path class="cls-4" d="M642,720.39,558.78,573.71l-5.71,3.59c-5.53,3.47-6.59,12.33-2.37,19.77l62.57,110.27,28.73,13" transform="translate(-186.39 -30.8)"/><path d="M684.39,413.39c46.94,16.37,78.09,19.78,127.41,23.87l-1.4-8.07c-1.36-7.8-9.49-15.58-18.17-17.37-25.72-17-61.42-22-115.84-25.43Z" transform="translate(-186.39 -30.8)"/><path class="cls-4" d="M921.27,505.8l-116.6-88.22c-7.87-6-17.4-6.44-21.29-1.09l-4,5.53L934.48,539.37Z" transform="translate(-186.39 -30.8)"/><path d="M648.39,353.39c42-5.23,81-15.12,126-31.43l-3.41-6.5c-3.79-4.4-13.31-6.06-20.18-7.85-38.07-1.82-81.47,14.54-121.41,32.78Z" transform="translate(-186.39 -30.8)"/><path class="cls-4" d="M879.24,334.69,755.17,308.63c-8.38-1.76-16.49,1.94-18.12,8.27l-1.68,6.53,165,34.66Z" transform="translate(-186.39 -30.8)"/><path d="M524.22,449c-37,22.76-72.68,53.28-107.64,88.6l6.05,4c5.85,3.83,15.83,2.62,22.28-2.69,35.33-20.69,62.62-42.92,91.48-74.5Z" transform="translate(-186.39 -30.8)"/><path class="cls-4" d="M305.5,576.23l128.1-31.7c8.65-2.14,14.79-8.89,13.73-15.09l-1.1-6.39-170.4,42.16Z" transform="translate(-186.39 -30.8)"/><path d="M510.39,416.39c-44.55,14.82-87,41.1-134.6,74.51l6.78,6.16c6.56,6,18.63,7.1,27,2.54,45.83-15.35,74-27.73,110.86-57.21Z" transform="translate(-186.39 -30.8)"/><path class="cls-4" d="M238.58,507.7l156.77-4.39c10.59-.3,18.71-6.62,18.14-14.12l-.59-7.75-208.55,5.84Z" transform="translate(-186.39 -30.8)"/><path d="M625.39,339.39c15.33-41.29,24-80.75,24.36-119.31,1.7-8.09-2-17.23-8.21-20.44l-6.44-3.3c-16.42,45.27-31.13,135.57-29.71,136C605.18,332.64,623.55,335.85,625.39,339.39Z" transform="translate(-186.39 -30.8)"/><path class="cls-4" d="M618.85,88.48l32.58,125.18c2.2,8.45-.94,17-7,19l-6.28,2.1L594.79,68.24Z" transform="translate(-186.39 -30.8)"/><path d="M596.3,332.21c5.18-49.42,6.83-96.48,7.82-138.91.53-9.35-5.8-19.51-14.13-22.69l-8.61-3.28c-4.69,54.72-13.92,117.2-14,166.06C567.12,333.51,586.85,330,596.3,332.21Z" transform="translate(-186.39 -30.8)"/><path class="cls-4" d="M509.59,47.15l87.56,127.34c5.91,8.59,5.4,18.77-1.14,22.72l-6.75,4.08L472.78,31.91Z" transform="translate(-186.39 -30.8)"/></g><path d="M622.39,337.39" transform="translate(-186.39 -30.8)"/></svg>